<?xml version="1.0" encoding="UTF-8"?><svg width="24px" height="24px" stroke-width="1" viewBox="0 0 24 24" fill="none" xmlns="http://www.w3.org/2000/svg" color="currentColor"><path d="M17 14l2-2m2-2l-2 2m0 0l-2-2m2 2l2 2" stroke="currentColor" stroke-width="1" stroke-linecap="round" stroke-linejoin="round"></path><path d="M3 14v-4a1 1 0 011-1h2.697a1 1 0 00.555-.168l4.193-2.796A1 1 0 0113 6.87V17.13a1 1 0 01-1.555.832l-4.193-2.795A1 1 0 006.697 15H4a1 1 0 01-1-1z" stroke="currentColor" stroke-width="1"></path></svg>
